# Blender v2.93.3 OBJ File: ''
# www.blender.org
mtllib road.mtl
o p1a_Plane.024
v -2.000000 0.023023 -3.431340
v -2.000000 0.027823 -3.299134
v -2.000000 0.049905 -0.061383
v -2.000000 -0.164854 -3.583732
v -2.000000 -0.067146 -3.557434
v -2.000000 0.010629 -3.485589
v -2.000000 -0.022375 -3.531743
v -2.000000 0.050858 -2.269992
v -2.000000 0.060464 -1.135254
v -2.000000 0.031669 -3.168268
v 2.000000 0.010629 -3.485589
v 2.000000 0.049905 -0.061383
v 2.000000 -0.164854 -3.583732
v 2.000000 0.023023 -3.431340
v 2.000000 -0.067146 -3.557434
v 2.000000 -0.022375 -3.531743
v 2.000000 0.050858 -2.269992
v 2.000000 0.060464 -1.135254
v 2.000000 0.031669 -3.168268
v 2.000000 0.027823 -3.299134
v -2.000000 0.023024 3.431686
v -2.000000 0.027824 3.299480
v -2.000000 0.049905 0.058270
v -2.000000 -0.164853 3.584078
v -2.000000 -0.067145 3.557780
v -2.000000 0.010630 3.485935
v -2.000000 -0.022374 3.532088
v -2.000000 0.050859 2.270338
v -2.000000 0.060464 1.135600
v -2.000000 0.031670 3.168613
v 2.000000 0.010630 3.485935
v 2.000000 0.049905 0.058270
v 2.000000 -0.164853 3.584078
v 2.000000 0.023024 3.431686
v 2.000000 -0.067145 3.557780
v 2.000000 -0.022374 3.532088
v 2.000000 0.050859 2.270338
v 2.000000 0.060464 1.135600
v 2.000000 0.031670 3.168613
v 2.000000 0.027824 3.299480
v -6.000000 -0.164854 -3.583732
v -6.000000 0.023023 -3.431340
v -6.000000 -0.067146 -3.557434
v -6.000000 0.010629 -3.485589
v -6.000000 -0.022375 -3.531743
v -6.000000 0.050858 -2.269992
v -6.000000 0.060464 -1.135254
v -6.000000 0.031669 -3.168268
v -6.000000 0.027823 -3.299134
v -6.000000 0.049905 -0.061383
v -6.000000 -0.164853 3.584078
v -6.000000 0.023024 3.431686
v -6.000000 -0.067145 3.557780
v -6.000000 0.010630 3.485935
v -6.000000 -0.022374 3.532088
v -6.000000 0.050859 2.270338
v -6.000000 0.060464 1.135600
v -6.000000 0.031670 3.168613
v -6.000000 0.027824 3.299480
v -6.000000 0.049905 0.058270
v 6.000000 -0.164854 -3.583732
v 6.000000 -0.067146 -3.557434
v 6.000000 0.023023 -3.431340
v 6.000000 -0.022375 -3.531743
v 6.000000 0.010629 -3.485589
v 6.000000 0.060464 -1.135255
v 6.000000 0.050858 -2.269992
v 6.000000 0.031669 -3.168268
v 6.000000 0.027823 -3.299134
v 6.000000 0.049905 -0.061383
v 6.000000 -0.164853 3.584078
v 6.000000 -0.067145 3.557780
v 6.000000 0.023024 3.431686
v 6.000000 -0.022374 3.532088
v 6.000000 0.010630 3.485935
v 6.000000 0.060464 1.135600
v 6.000000 0.050859 2.270338
v 6.000000 0.031670 3.168613
v 6.000000 0.027824 3.299480
v 6.000000 0.049905 0.058270
vt 0.039097 0.491720
vt -0.498961 0.491720
vt -0.498961 0.347262
vt 0.039097 0.347262
vt 1.115212 0.056148
vt 0.577154 0.056148
vt 0.577154 0.038352
vt 1.115212 0.038352
vt 1.115212 0.030867
vt 0.577154 0.030867
vt 1.115212 0.016291
vt 0.577154 0.016291
vt 0.577154 0.002681
vt 1.115212 0.002680
vt 1.115212 0.073759
vt 0.577154 0.073759
vt -0.498961 0.030867
vt 0.039097 0.030867
vt 0.039097 0.038352
vt -0.498961 0.038353
vt 1.115212 0.491720
vt 0.577154 0.491720
vt 0.577154 0.347262
vt 1.115212 0.347261
vt 0.039097 0.023235
vt 0.577154 0.023235
vt 0.039097 0.016291
vt 0.039097 0.002681
vt 0.039097 0.073759
vt 0.039097 0.056148
vt 0.039097 0.194617
vt 0.577154 0.194617
vt -0.498961 0.194618
vt -0.498961 0.056148
vt 0.577155 0.969133
vt 1.115212 0.969133
vt 1.115212 0.976765
vt 0.577155 0.976765
vt -0.498961 0.073759
vt 1.115212 0.983709
vt 0.577155 0.983709
vt -0.498961 0.976765
vt -0.498961 0.969133
vt 0.039097 0.969133
vt 0.039097 0.976765
vt 1.115212 0.507815
vt 1.115212 0.652738
vt 0.577155 0.652738
vt 0.577154 0.507815
vt 1.115212 0.961647
vt 0.577155 0.961648
vt 1.115212 0.997319
vt 0.577155 0.997319
vt 1.115212 0.805382
vt 1.115212 0.926241
vt 0.577155 0.926241
vt 0.577155 0.805382
vt -0.498961 0.983709
vt 0.039097 0.983709
vt 1.115212 0.943852
vt 0.577155 0.943852
vt 0.039097 0.507815
vt 0.039097 0.652738
vt 0.039097 0.961648
vt 0.039097 0.997319
vt 0.039097 0.943852
vt 0.039097 0.926241
vt 0.039097 0.805383
vt -0.498961 0.652739
vt -0.498961 0.507815
vt -0.498961 0.997320
vt -0.498961 0.961648
vt -0.498961 0.926241
vt -0.498961 0.805383
vt -0.498961 0.943852
vt 1.115212 0.194617
vt -0.498961 0.016292
vt -0.498961 0.023235
vt -0.498961 0.002681
vt 1.115212 0.023235
vn 0.0000 1.0000 0.0049
vn -0.0000 1.0000 0.0007
vn 0.0000 0.9995 -0.0328
vn 0.0000 0.9915 -0.1301
vn 0.0000 0.9120 -0.4102
vn 0.0000 0.3820 -0.9242
vn 0.0000 0.2599 -0.9656
vn 0.0000 0.9997 -0.0254
vn -0.0000 0.6709 -0.7415
vn -0.0000 0.9999 -0.0149
vn 0.0000 0.9120 0.4102
vn 0.0000 0.6709 0.7415
vn 0.0000 0.3820 0.9242
vn 0.0000 1.0000 -0.0049
vn 0.0000 1.0000 -0.0007
vn 0.0000 0.9915 0.1301
vn 0.0000 0.2599 0.9656
vn 0.0000 0.9999 0.0149
vn 0.0000 0.9997 0.0254
vn 0.0000 0.9995 0.0328
usemtl Material.001
s 1
f 12/1/1 70/2/1 66/3/2 18/4/2
f 49/5/3 2/6/3 1/7/4 42/8/4
f 44/9/5 42/8/4 1/7/4 6/10/5
f 43/11/6 5/12/6 4/13/7 41/14/7
f 48/15/8 10/16/8 2/6/3 49/5/3
f 65/17/5 11/18/5 14/19/4 63/20/4
f 50/21/1 3/22/1 9/23/2 47/24/2
f 12/1/1 18/4/2 9/23/2 3/22/1
f 16/25/9 7/26/9 6/10/5 11/18/5
f 11/18/5 6/10/5 1/7/4 14/19/4
f 5/12/6 15/27/6 13/28/7 4/13/7
f 10/16/8 19/29/8 20/30/3 2/6/3
f 9/23/2 18/4/2 17/31/10 8/32/10
f 2/6/3 20/30/3 14/19/4 1/7/4
f 8/32/10 17/31/10 19/29/8 10/16/8
f 18/4/2 66/3/2 67/33/10 17/31/10
f 69/34/3 63/20/4 14/19/4 20/30/3
f 26/35/11 54/36/11 55/37/12 27/38/12
f 67/33/10 68/39/8 19/29/8 17/31/10
f 19/29/8 68/39/8 69/34/3 20/30/3
f 27/38/12 55/37/12 53/40/13 25/41/13
f 74/42/12 75/43/11 31/44/11 36/45/12
f 15/27/6 5/12/6 7/26/9 16/25/9
f 60/46/14 57/47/15 29/48/15 23/49/14
f 52/50/16 54/36/11 26/35/11 21/51/16
f 50/21/1 60/46/14 23/49/14 3/22/1
f 53/40/13 51/52/17 24/53/17 25/41/13
f 56/54/18 58/55/19 30/56/19 28/57/18
f 72/58/13 74/42/12 36/45/12 35/59/13
f 58/55/19 59/60/20 22/61/20 30/56/19
f 57/47/15 56/54/18 28/57/18 29/48/15
f 59/60/20 52/50/16 21/51/16 22/61/20
f 32/62/14 23/49/14 29/48/15 38/63/15
f 36/45/12 31/44/11 26/35/11 27/38/12
f 31/44/11 34/64/16 21/51/16 26/35/11
f 25/41/13 24/53/17 33/65/17 35/59/13
f 30/56/19 22/61/20 40/66/20 39/67/19
f 29/48/15 28/57/18 37/68/18 38/63/15
f 22/61/20 21/51/16 34/64/16 40/66/20
f 28/57/18 30/56/19 39/67/19 37/68/18
f 76/69/15 80/70/14 32/62/14 38/63/15
f 33/65/17 71/71/17 72/58/13 35/59/13
f 75/43/11 73/72/16 34/64/16 31/44/11
f 39/67/19 78/73/19 77/74/18 37/68/18
f 34/64/16 73/72/16 79/75/20 40/66/20
f 37/68/18 77/74/18 76/69/15 38/63/15
f 79/75/20 78/73/19 39/67/19 40/66/20
f 32/62/14 80/70/14 70/2/1 12/1/1
f 35/59/13 36/45/12 27/38/12 25/41/13
f 46/76/10 8/32/10 10/16/8 48/15/8
f 62/77/6 15/27/6 16/25/9 64/78/9
f 47/24/2 9/23/2 8/32/10 46/76/10
f 15/27/6 62/77/6 61/79/7 13/28/7
f 7/26/9 45/80/9 44/9/5 6/10/5
f 64/78/9 16/25/9 11/18/5 65/17/5
f 5/12/6 43/11/6 45/80/9 7/26/9
usemtl Material.002
f 3/22/1 23/49/14 32/62/14 12/1/1
